<?xml version="1.0" encoding="UTF-8"?>
<svg id="Layer_1" data-name="Layer 1" xmlns="http://www.w3.org/2000/svg" viewBox="0 0 36.77 37.8">
  <g id="Cashless">
    <path d="M36.66,35.07c-1.24-2.17-2.24-4.48-2.97-6.86-.36-1.19-1.33-4.36-1.53-8.62l-.02-.56c-.08-1.99-.3-7.26-.68-10.2-.05-.41-.2-1.5-.95-2.57-.8-1.14-1.89-1.66-2.35-1.88-.38-.18-.85-.33-1.35-.45V1.53c0-.84-.69-1.53-1.53-1.53H1.53C.69,0,0,.69,0,1.53v13.1c0,.85.69,1.53,1.53,1.53h3.85c.01.22.03.43.1.64.21.68.61,1.27,1.13,1.66.48.36,1.04.54,1.6.54.3,0,.6-.06.88-.16.2.25.43.47.7.64.46.29.98.43,1.51.43.71,0,1.42-.26,1.98-.77.04-.03.07-.07.1-.11l1.08-1.4c.75.93,1.56,2.06,2.2,3.56.36.85.61,1.74.79,2.65.01.05.02.1.03.14,0,.04.02.09.03.13,0,.02.02.04.02.06.55,2.19,1.67,4.19,3.24,5.75.68.67,1.43,1.28,2.22,1.82.34.23.56.58.61.97l.6,4.36c.06.41.41.71.81.71.04,0,.08,0,.11,0l10.92-1.5c.27-.04.51-.21.63-.45s.11-.54-.02-.77ZM25.15,1.65v1.58H1.65v-1.58h23.5ZM8.54,17.28c-.31.11-.65.07-.94-.14-.24-.18-.44-.47-.54-.82-.02-.05,0-.1-.01-.16h1.78c-.18.35-.29.73-.29,1.12ZM1.65,14.51V6h23.5v8.52h-5.16c-.6-.62-1.12-1.21-1.58-1.75-1.26-1.46-2.25-2.61-3.7-2.38-1.31.21-2.28,1.49-2.51,2.6-.12.55-.07,1.05.1,1.53H1.65ZM22.89,16.16c.05.28.08.57.12.85-.22-.15-.45-.28-.66-.44-.19-.14-.34-.28-.51-.42h1.06ZM12.13,17.96c-.42.35-1.01.4-1.45.12-.1-.06-.19-.15-.26-.24l1.1-1.68h1.75c.04.05.08.11.12.16l-1.26,1.64ZM25.73,36.05l-.49-3.55c-.12-.85-.6-1.62-1.32-2.1-.71-.48-1.37-1.03-2.03-1.67-1.38-1.37-2.34-3.2-2.8-5.19-.01,0-.02,0-.03,0-.2-1.02-.49-2.03-.89-2.98-.89-2.1-2.06-3.51-2.99-4.65-1-1.21-1.52-1.87-1.37-2.57.13-.61.69-1.24,1.16-1.32.55-.08,1.23.72,2.19,1.83,1.01,1.18,2.28,2.64,4.2,4.06,1.11.82,2.32,1.53,3.59,2.11.41.18.9,0,1.09-.41.19-.41,0-.9-.41-1.09-.29-.13-.57-.3-.86-.45-.04-.64-.1-1.27-.2-1.9h.7c.85,0,1.53-.69,1.53-1.53V5.62c.25.08.47.16.64.24.4.19,1.16.55,1.71,1.34.52.74.62,1.51.66,1.84.37,2.87.59,8.09.67,10.06l.02.57c.2,4.47,1.22,7.78,1.6,9.03.65,2.11,1.5,4.17,2.53,6.13l-8.91,1.22Z" fill="#1e63ad"/>
    <path d="M6.43,11.39h-3.01c-.31,0-.57-.25-.57-.57v-2.19c0-.31.25-.57.57-.57h3.01c.31,0,.57.25.57.57v2.19c0,.31-.25.57-.57.57ZM3.67,10.57h2.5v-1.67h-2.5v1.67Z" fill="#1e63ad"/>
    <g>
      <path d="M10.73,12.7c-.12,0-.24-.05-.32-.15-.14-.18-.12-.44.06-.58.73-.6,1.13-1.4,1.13-2.24s-.4-1.64-1.13-2.24c-.18-.14-.2-.4-.06-.58s.4-.2.58-.06c.92.76,1.43,1.78,1.43,2.88s-.51,2.12-1.43,2.88c-.08.06-.17.09-.26.09Z" fill="#1e63ad"/>
      <path d="M9.65,11.78c-.12,0-.24-.05-.32-.15-.14-.18-.11-.44.06-.58.44-.35.68-.82.68-1.31s-.24-.96-.68-1.31c-.18-.14-.21-.4-.06-.58.14-.18.4-.2.58-.06.63.5.99,1.22.99,1.95s-.36,1.45-.99,1.95c-.08.06-.17.09-.26.09Z" fill="#1e63ad"/>
      <path d="M8.49,10.78c-.13,0-.26-.06-.34-.17-.13-.18-.09-.44.09-.58.07-.05.18-.15.18-.3s-.12-.25-.18-.3c-.18-.13-.23-.39-.09-.58.13-.18.39-.23.58-.09.34.24.53.59.53.97s-.19.73-.53.97c-.07.05-.16.08-.24.08Z" fill="#1e63ad"/>
    </g>
  </g>
</svg>