<?xml version="1.0" encoding="UTF-8"?>
<svg id="Layer_1" data-name="Layer 1" xmlns="http://www.w3.org/2000/svg" viewBox="0 0 37.8 37.8">
  <path id="Smaller_Foot_Print" data-name="Smaller Foot Print" d="M34.24,37.8h-.33c-.56,0-1.02-.46-1.02-1.02s.46-1.02,1.02-1.02h.3c.56,0,1.03.46,1.03,1.02s-.44,1.02-1,1.02ZM30.31,37.8h-8.4c-.56,0-1.02-.46-1.02-1.02s.46-1.02,1.02-1.02h8.4c.56,0,1.02.46,1.02,1.02s-.46,1.02-1.02,1.02ZM18.3,37.8h-3.6c-.56,0-1.02-.46-1.02-1.02s.46-1.02,1.02-1.02h3.6c.56,0,1.02.46,1.02,1.02s-.46,1.02-1.02,1.02ZM11.1,37.8h-.3c-.56,0-1.02-.46-1.02-1.02s.46-1.02,1.02-1.02h.3c.56,0,1.02.46,1.02,1.02s-.46,1.02-1.02,1.02ZM7.2,37.8h-3.61c-1.98,0-3.59-1.61-3.59-3.59v-.74c0-.56.46-1.02,1.02-1.02s1.02.46,1.02,1.02v.74c0,.86.7,1.56,1.56,1.56h3.61c.56,0,1.02.46,1.02,1.02s-.46,1.02-1.02,1.02ZM36.75,35.64c-.05,0-.11,0-.16-.01-.55-.09-.93-.61-.85-1.16.01-.08.02-.17.02-.26v-3.18c0-.56.46-1.02,1.02-1.02s1.02.46,1.02,1.02v3.18c0,.2-.02.39-.05.58-.08.5-.51.86-1,.86ZM1.02,30.88c-.56,0-1.02-.46-1.02-1.02v-3.6c0-.56.46-1.02,1.02-1.02s1.02.46,1.02,1.02v3.6c0,.56-.46,1.02-1.02,1.02ZM36.78,28.44c-.56,0-1.02-.46-1.02-1.02v-8.4c0-.56.46-1.02,1.02-1.02s1.02.46,1.02,1.02v8.4c0,.56-.46,1.02-1.02,1.02ZM1.02,23.68c-.56,0-1.02-.46-1.02-1.02v-.3c0-.56.46-1.02,1.02-1.02s1.02.46,1.02,1.02v.3c0,.56-.46,1.02-1.02,1.02ZM1.02,19.78c-.56,0-1.02-.46-1.02-1.02v-8.4c0-.56.46-1.02,1.02-1.02s1.02.46,1.02,1.02v8.4c0,.56-.46,1.02-1.02,1.02ZM36.78,16.44c-.56,0-1.02-.46-1.02-1.02v-.3c0-.56.46-1.02,1.02-1.02s1.02.46,1.02,1.02v.3c0,.56-.46,1.02-1.02,1.02ZM36.78,12.54c-.56,0-1.02-.46-1.02-1.02v-3.6c0-.56.46-1.02,1.02-1.02s1.02.46,1.02,1.02v3.6c0,.56-.46,1.02-1.02,1.02ZM1.02,7.78c-.56,0-1.02-.46-1.02-1.02v-3.17c0-.2.02-.4.05-.6.09-.55.61-.92,1.17-.84.55.09.93.62.84,1.17-.01.09-.02.18-.02.27v3.17c0,.56-.46,1.02-1.02,1.02ZM36.78,5.34c-.56,0-1.02-.46-1.02-1.02v-.73c0-.86-.7-1.56-1.56-1.56h-3.62c-.56,0-1.02-.46-1.02-1.02s.46-1.02,1.02-1.02h3.62c1.98,0,3.59,1.61,3.59,3.59v.73c0,.56-.46,1.02-1.02,1.02ZM26.98,2.03h-.3c-.56,0-1.02-.46-1.02-1.02s.46-1.02,1.02-1.02h.3c.56,0,1.02.46,1.02,1.02s-.46,1.02-1.02,1.02ZM23.08,2.03h-3.6c-.56,0-1.02-.46-1.02-1.02s.46-1.02,1.02-1.02h3.6c.56,0,1.02.46,1.02,1.02s-.46,1.02-1.02,1.02ZM15.88,2.03H7.48c-.56,0-1.02-.46-1.02-1.02s.46-1.02,1.02-1.02h8.4c.56,0,1.02.46,1.02,1.02s-.46,1.02-1.02,1.02ZM3.88,2.03h-.29c-.56,0-1.02-.46-1.02-1.02s.45-1.02,1.01-1.02h.3c.56,0,1.02.46,1.02,1.02s-.46,1.02-1.02,1.02ZM18.46,32.4h-10.34c-1.75,0-3.18-1.43-3.18-3.18v-10.34c0-1.75,1.43-3.18,3.18-3.18h10.34c1.75,0,3.18,1.43,3.18,3.18v10.34c0,1.75-1.43,3.18-3.18,3.18ZM8.12,17.74c-.63,0-1.15.51-1.15,1.15v10.34c0,.63.51,1.15,1.15,1.15h10.34c.63,0,1.15-.51,1.15-1.15v-10.34c0-.63-.51-1.15-1.15-1.15h-10.34ZM28.49,14.3l-1.15-1.12c-.16-.16-.17-.42,0-.58l6.34-6.5c.08-.08.12-.19.12-.29s-.04-.21-.12-.29l-1.21-1.18c-.08-.08-.18-.12-.29-.11-.11,0-.21.04-.29.12l-6.34,6.5s0,0,0,0c-.08.08-.18.12-.29.12,0,0,0,0,0,0-.1,0-.21-.04-.29-.12l-1.13-1.1c-.07-.07-.17-.1-.26-.11-.03,0-.05,0-.07,0-.06,0-.12.03-.17.06-.02.01-.04.02-.06.04-.06.06-.12.14-.13.24-.24,1.87-.49,3.73-.73,5.6,0,.07,0,.13.02.19,0,.02.02.03.03.05.02.04.04.07.07.1.02.02.04.03.05.04.03.02.06.04.09.05.02,0,.05.01.07.02.05,0,.1.02.15,0,1.8-.35,3.59-.71,5.39-1.06.32-.06.44-.46.21-.69Z" fill="#1e63ad"/>
</svg>